<?xml version="1.0" encoding="utf-8"?>
<!-- Generator: Adobe Illustrator 24.0.0, SVG Export Plug-In . SVG Version: 6.00 Build 0)  -->
<svg version="1.1" id="图层_1" xmlns="http://www.w3.org/2000/svg" xmlns:xlink="http://www.w3.org/1999/xlink" x="0px" y="0px"
	 viewBox="0 0 120 68" style="enable-background:new 0 0 120 68;" xml:space="preserve">
<style type="text/css">
	.st0{fill:#E3F2FF;}
	.st1{fill:#B6C9DD;}
	.st2{fill:#FFFFFF;}
	.st3{enable-background:new    ;}
	.st4{fill:#507B91;}
</style>
<g>
	<g>
		<g>
			<g>
				<path class="st0" d="M8.5,67.5c-4.4,0-8-3.6-8-8v-51c0-4.4,3.6-8,8-8h102.9c4.4,0,8,3.6,8,8v50.9c0,4.4-3.6,8-8,8L8.5,67.5
					L8.5,67.5z"/>
			</g>
			<g>
				<path class="st1" d="M111.5,1c4.2,0,7.5,3.4,7.5,7.5v50.9c0,4.2-3.4,7.5-7.5,7.5H8.5C4.4,67,1,63.6,1,59.5v-51
					C1,4.4,4.4,1,8.5,1H111.5 M111.5,0H8.5C3.8,0,0,3.8,0,8.5v50.9C0,64.2,3.8,68,8.5,68h102.9c4.7,0,8.5-3.8,8.5-8.5v-51
					C120,3.8,116.2,0,111.5,0L111.5,0z"/>
			</g>
		</g>
		<g>
			<g>
				<path class="st2" d="M11.5,52.5c-2.7,0-5-2.2-5-5v-35c0-2.7,2.2-5,5-5h97.1c2.7,0,5,2.2,5,5v35.1c0,2.7-2.2,5-5,5L11.5,52.5
					L11.5,52.5z"/>
			</g>
			<g>
				<path class="st1" d="M108.5,8c2.5,0,4.5,2,4.5,4.5v35.1c0,2.5-2,4.5-4.5,4.5h-97C9,52,7,50,7,47.5v-35C7,10,9,8,11.5,8H108.5
					 M108.5,7h-97C8.4,7,6,9.4,6,12.5v35.1c0,3,2.4,5.5,5.5,5.5h97.1c3,0,5.5-2.4,5.5-5.5V12.5C114,9.4,111.6,7,108.5,7L108.5,7z"/>
			</g>
		</g>
	</g>
</g>
</svg>
