<?xml version="1.0" encoding="utf-8"?>
<!-- Generator: Adobe Illustrator 24.0.0, SVG Export Plug-In . SVG Version: 6.00 Build 0)  -->
<svg version="1.1" id="图层_1" xmlns="http://www.w3.org/2000/svg" xmlns:xlink="http://www.w3.org/1999/xlink" x="0px" y="0px"
	 viewBox="0 0 120 68" style="enable-background:new 0 0 120 68;" xml:space="preserve">
<style type="text/css">
	.st0{fill:#E3F2FF;}
	.st1{fill:#B6C9DD;}
	.st2{fill:#FFFFFF;}
	.st3{enable-background:new    ;}
	.st4{fill:#507B91;}
	.st5{fill:#818384;}
</style>
<g>
	<g>
		<g>
			<g>
				<path class="st0" d="M60,67.6C28.5,67.6,1.8,61,0.5,52.9v-0.3V16.2h118.9v36.7v0.2C118,60.9,91.5,67.6,60,67.6z"/>
			</g>
			<g>
				<path class="st1" d="M118.9,16.5v36v0.3c-1.2,7.8-27.6,14.3-58.9,14.3S2.4,60.7,1.1,52.8v-0.2V16.5H118.9 M119.9,15.7H0V53l0,0
					c1.2,8.4,27.6,15,59.9,15s58.6-6.7,59.9-15l0,0L119.9,15.7L119.9,15.7z"/>
			</g>
		</g>
		<g>
			<g>
				<ellipse class="st2" cx="60" cy="15.7" rx="59.5" ry="15.2"/>
			</g>
			<g>
				<path class="st1" d="M60,0.8c32,0,58.9,6.8,58.9,14.8c0,7.9-27,14.8-58.9,14.8S1.1,23.6,1.1,15.6S28,0.8,60,0.8 M60,0
					C27,0,0,7.1,0,15.7s26.8,15.7,60,15.7s60-7.1,60-15.7S93,0,60,0L60,0z"/>
			</g>
		</g>
	</g>
</g>
</svg>
